# xmcd
#
# Track frame offsets: 
#        150
#        12432
#        24522
#        37642
#        51197
#        64962
#        78775
#        92795
#        106922
#        123920
#
# Disc length: 1716 seconds
#
# Revision: 0
# Processed by: cddbd v1.5.2PL0 Copyright (c) Steve Scherf et al.
# Submitted via: ExactAudioCopy v0.95b4
#
DISCID=7006b20a
DTITLE=Little Creek Band - First Step
DYEAR=1900
DGENRE=Country
TTITLE0=Country Roads
TTITLE1=Home
TTITLE2=If You Wann'a Find Love
TTITLE3=High Cotton
TTITLE4=Agree To Be Free
TTITLE5=Love Is Like A River
TTITLE6=Cowgirls Blues
TTITLE7=Smoke Along The Track
TTITLE8=On The Highway To Texas
TTITLE9=Country Roads 2
EXTD=
EXTT0=
EXTT1=
EXTT2=
EXTT3=
EXTT4=
EXTT5=
EXTT6=
EXTT7=
EXTT8=
EXTT9=
PLAYORDER=
